<?xml version="1.0" standalone="no"?>
<!DOCTYPE svg PUBLIC "-//W3C//DTD SVG 20010904//EN"
 "http://www.w3.org/TR/2001/REC-SVG-20010904/DTD/svg10.dtd">
<svg version="1.0" xmlns="http://www.w3.org/2000/svg"
 width="937.000000pt" height="937.000000pt" viewBox="0 0 937.000000 937.000000"
 preserveAspectRatio="xMidYMid meet">

<g transform="translate(0.000000,937.000000) scale(0.100000,-0.100000)"
fill="#000000" stroke="none">
<path d="M2813 7939 c-451 -40 -865 -326 -1063 -734 -99 -204 -135 -372 -134
-635 1 -267 33 -390 144 -558 105 -159 231 -287 372 -379 381 -247 876 -204
1182 103 99 100 166 209 214 346 31 90 36 118 40 224 5 150 -16 245 -85 384
-40 80 -62 110 -143 190 -146 146 -266 200 -451 200 -206 0 -407 -97 -509
-245 -39 -56 -77 -173 -85 -260 -17 -175 52 -366 161 -450 57 -44 198 -98 269
-103 150 -10 326 99 372 231 23 70 23 204 0 274 -63 183 -272 262 -415 156
-63 -47 -133 -170 -118 -208 5 -15 9 -15 36 2 16 9 60 48 97 86 37 39 82 76
100 84 30 12 38 12 78 -6 24 -10 64 -38 89 -61 131 -121 81 -354 -93 -434 -35
-16 -65 -21 -126 -21 -69 0 -89 5 -147 32 -161 76 -243 224 -219 399 33 232
197 399 428 436 266 42 600 -208 669 -499 29 -123 4 -292 -66 -447 -78 -175
-217 -324 -373 -401 -141 -69 -233 -89 -392 -82 -154 6 -238 27 -370 92 -107
53 -184 110 -284 208 -221 217 -314 486 -289 835 33 482 384 939 833 1086 142
47 212 58 401 63 208 6 331 -9 475 -57 311 -104 705 -393 800 -586 59 -120 50
-259 -33 -509 -192 -579 -476 -1043 -994 -1625 -127 -142 -192 -212 -486 -518
-223 -231 -388 -428 -388 -461 0 -33 124 4 376 112 202 87 460 185 629 240
205 65 193 64 200 20 3 -21 8 -51 11 -68 3 -16 9 -232 14 -480 9 -498 11 -513
76 -611 42 -64 128 -145 180 -172 124 -63 273 -82 714 -89 551 -9 752 11 916
92 173 85 235 196 263 471 6 55 14 331 17 612 l7 512 46 0 c107 0 367 -33 800
-101 140 -22 275 -39 300 -37 45 3 46 4 49 39 3 32 -2 41 -46 80 -27 24 -89
66 -137 93 -208 115 -754 503 -1009 717 -319 267 -635 602 -881 934 -45 61
-186 266 -312 456 -127 190 -252 372 -278 405 -280 350 -721 583 -1177 624
-124 11 -123 11 -255 -1z m1718 -1215 c170 -257 277 -449 266 -478 -13 -33
-139 -73 -322 -101 -127 -20 -425 -32 -425 -18 0 6 25 63 55 128 78 165 147
354 195 535 51 192 50 190 56 190 2 0 81 -115 175 -256z m427 -588 c27 -15 53
-43 182 -200 l70 -85 -57 -46 c-101 -83 -230 -137 -416 -175 -316 -64 -715
-120 -910 -127 l-158 -6 146 234 c81 129 152 239 158 246 7 7 105 20 246 33
330 29 478 58 601 114 63 29 100 32 138 12z m412 -449 c82 -65 350 -297 350
-302 0 -9 -174 -107 -236 -134 -304 -129 -1027 -261 -1919 -350 -165 -17 -324
-33 -353 -36 -30 -3 -52 -1 -50 3 12 31 397 494 413 497 11 2 130 13 265 25
283 25 500 55 749 105 317 64 464 111 601 194 47 28 92 51 100 51 8 0 44 -24
80 -53z m573 -469 c68 -51 212 -155 318 -230 210 -148 329 -242 329 -259 0 -6
-7 -8 -17 -5 -9 4 -69 16 -133 26 -323 54 -721 75 -1240 67 -766 -13 -1139
-66 -1810 -262 -241 -70 -354 -110 -585 -205 -208 -86 -245 -98 -245 -81 0 6
104 113 230 239 l230 228 218 22 c626 65 985 110 1312 163 681 109 1075 224
1195 348 21 23 47 41 56 41 9 0 73 -42 142 -92z m-1042 -708 c62 -32 138 -155
112 -181 -17 -17 -149 -39 -411 -69 -141 -17 -281 -35 -311 -40 -66 -12 -131
-13 -149 -1 -8 4 -16 26 -18 47 -7 50 28 120 74 151 86 57 351 108 585 112 60
1 87 -4 118 -19z m118 -271 c26 -9 33 -19 46 -62 25 -92 46 -225 43 -279 -3
-51 -4 -52 -33 -53 -29 0 -30 -2 -36 -52 -8 -60 -36 -105 -79 -123 -16 -7 -30
-15 -30 -18 0 -4 12 -16 28 -28 15 -12 23 -26 19 -31 -16 -15 -170 -8 -204 10
-77 41 -109 142 -100 322 9 176 31 226 120 269 50 25 145 54 178 55 9 1 30 -4
48 -10z m-424 -101 c4 -4 11 -80 15 -170 9 -180 0 -291 -28 -347 -47 -93 -219
-109 -314 -31 -98 81 -166 410 -102 497 42 57 72 64 256 61 91 -2 169 -6 173
-10z m521 -393 c7 -28 -23 -96 -45 -103 -11 -4 -13 4 -7 36 7 48 25 92 37 92
5 0 11 -11 15 -25z"/>
<path d="M2803 2570 c-42 -17 -48 -45 -48 -215 1 -158 12 -224 36 -210 21 13
31 62 39 188 8 135 16 157 57 157 64 0 86 -38 103 -185 13 -109 33 -171 51
-159 55 33 49 284 -8 363 -42 57 -161 89 -230 61z"/>
<path d="M3270 2548 c-15 -41 -25 -246 -16 -321 17 -131 62 -99 76 53 10 102
28 134 81 144 96 19 97 20 31 27 -67 6 -112 35 -112 71 0 27 -18 58 -34 58 -8
0 -19 -15 -26 -32z"/>
<path d="M3642 2563 c-14 -36 -7 -246 11 -305 22 -72 67 -125 112 -134 49 -9
104 21 132 71 63 112 78 385 21 385 -17 0 -39 -70 -53 -174 -20 -143 -39 -183
-81 -174 -35 7 -54 51 -69 165 -20 151 -50 221 -73 166z"/>
<path d="M4142 2563 c-10 -25 -6 -322 5 -357 15 -49 49 -66 143 -72 66 -5 89
-3 104 9 42 31 -17 67 -110 67 -70 0 -90 41 -58 120 20 50 53 74 135 97 l64
18 -76 6 c-98 8 -130 24 -142 69 -15 58 -49 81 -65 43z"/>
<path d="M5515 2569 c-4 -5 0 -18 9 -27 28 -32 46 -91 56 -183 11 -108 39
-173 89 -206 44 -30 111 -31 157 -2 43 26 87 99 82 136 -5 46 -36 41 -93 -17
-53 -54 -81 -62 -109 -31 -25 27 -36 76 -45 202 -6 91 -11 114 -26 125 -22 16
-111 19 -120 3z"/>
<path d="M6550 2561 c-15 -30 -12 -112 7 -172 23 -69 87 -139 129 -139 38 0
91 -32 131 -78 17 -20 35 -33 40 -29 10 11 17 195 9 260 -10 77 -21 89 -51 54
-14 -16 -25 -40 -25 -56 0 -16 -9 -39 -19 -52 -16 -20 -23 -22 -46 -14 -42 15
-83 73 -95 133 -18 96 -55 139 -80 93z"/>
<path d="M2340 2372 c0 -110 3 -207 6 -216 20 -52 254 -35 254 19 0 19 -8 23
-91 40 -40 9 -80 22 -89 30 -23 21 -36 69 -55 205 -9 63 -19 117 -21 119 -2 2
-4 -86 -4 -197z"/>
<path d="M5155 2561 c-31 -13 -53 -43 -63 -87 -16 -72 3 -94 122 -139 80 -29
96 -40 96 -65 0 -23 -46 -60 -73 -60 -11 0 -44 14 -74 31 -60 34 -83 33 -83
-6 0 -67 117 -119 214 -94 61 15 116 74 116 123 0 50 -31 79 -140 134 -76 38
-96 52 -98 71 l-4 24 84 -6 c45 -4 89 -3 97 2 22 14 3 51 -35 67 -36 15 -127
18 -159 5z"/>
<path d="M6058 2538 c-9 -15 -13 -62 -13 -138 1 -134 21 -197 73 -224 73 -38
234 -45 262 -11 9 11 9 36 1 102 -6 48 -11 122 -12 163 -1 90 -9 124 -31 128
-20 4 -48 -64 -48 -118 0 -88 -41 -211 -75 -224 -47 -18 -76 41 -100 199 -14
97 -28 145 -40 145 -2 0 -10 -10 -17 -22z"/>
</g>
</svg>
